<svg width="58" height="54" viewBox="0 0 58 54" fill="none" xmlns="http://www.w3.org/2000/svg">
<path d="M1.95365 0.00915651C1.4778 -0.0307575 1.00533 0.117355 0.639329 0.42114C0.273328 0.724924 0.0434903 1.15973 0 1.6307V36.0593C0.0876742 36.515 0.333104 36.926 0.693959 37.2217C1.05481 37.5174 1.50849 37.6793 1.97686 37.6793C2.44523 37.6793 2.89894 37.5174 3.25979 37.2217C3.62065 36.926 3.86604 36.515 3.95372 36.0593V1.6307C3.93006 1.39411 3.85953 1.16445 3.74617 0.95487C3.63282 0.745295 3.47887 0.559934 3.29311 0.409333C3.10734 0.258731 2.89343 0.14588 2.66359 0.0772184C2.43376 0.00855737 2.19251 -0.0145933 1.95365 0.00915651Z" fill="url(#paint0_linear_64_1158)"/>
<path d="M41.6346 37.4129H46.2378C53.3511 37.4129 57.9998 35.0173 57.9998 28.4339V26.4076C57.9998 18.7651 54.3276 15.957 46.2852 15.957H33.648C32.787 15.957 31.9613 15.6184 31.3525 15.0154C30.7437 14.4125 30.4016 13.5947 30.4016 12.742V1.6307C30.3781 1.39405 30.3077 1.16431 30.1944 0.954661C30.0811 0.745013 29.9271 0.559543 29.7413 0.408915C29.5555 0.258287 29.3415 0.145472 29.1116 0.07687C28.8817 0.00826818 28.6404 -0.0147478 28.4016 0.00915529C28.1652 -0.0144069 27.9265 0.00912137 27.6995 0.0783284C27.4724 0.147535 27.2617 0.261002 27.0796 0.41211C26.8976 0.563217 26.7479 0.748927 26.6394 0.958203C26.5309 1.16748 26.4658 1.39612 26.4479 1.6307V12.7277C26.4479 13.5804 26.1059 14.3981 25.4971 15.001C24.8883 15.604 24.0625 15.9427 23.2015 15.9427H8.08862C7.61783 16.0077 7.19022 16.2493 6.89412 16.6175C6.59802 16.9858 6.45606 17.4526 6.49754 17.9215C6.44802 18.3923 6.58693 18.8634 6.88444 19.2338C7.18195 19.6042 7.61434 19.8442 8.08862 19.9023H23.185C24.046 19.9023 24.8717 20.241 25.4805 20.844C26.0893 21.4469 26.4314 22.2646 26.4314 23.1173V52.3303C26.4479 52.5668 26.5117 52.7977 26.6193 53.0095C26.7268 53.2214 26.8758 53.4099 27.0576 53.5641C27.2394 53.7183 27.4504 53.8352 27.6783 53.9079C27.9062 53.9806 28.1463 54.0076 28.3849 53.9874C28.6323 54.016 28.883 53.9957 29.1225 53.9277C29.3619 53.8597 29.5854 53.7454 29.7799 53.5913C29.9745 53.4371 30.1362 53.2463 30.2557 53.0299C30.3753 52.8134 30.4503 52.5757 30.4764 52.3303V23.131C30.4764 22.2784 30.8184 21.4606 31.4272 20.8577C32.036 20.2548 32.8618 19.916 33.7227 19.916H46.2852C50.9794 19.916 53.9549 21.1589 53.9549 26.4994V28.0665C53.9549 32.0705 51.1668 33.6826 45.123 33.6826H37.5895C37.2962 33.6489 36.999 33.6798 36.7191 33.7729C36.4393 33.8661 36.1836 34.0193 35.9704 34.2217C35.7573 34.424 35.5918 34.6705 35.486 34.9435C35.3801 35.2164 35.3363 35.5092 35.3579 35.8008C35.3882 36.2691 35.5203 36.7254 35.745 37.1385C35.9698 37.5517 36.2819 37.9119 36.6602 38.1945L53.8168 53.2507C54.2693 53.712 54.888 53.9769 55.5373 53.9874C55.7858 54.0152 56.0373 53.9926 56.2766 53.921C56.516 53.8494 56.7381 53.7302 56.9294 53.5708C57.1207 53.4113 57.2772 53.215 57.3893 52.9936C57.5014 52.7723 57.5668 52.5307 57.5816 52.2835C57.5759 51.9986 57.5062 51.7186 57.3775 51.4637C57.2488 51.2088 57.0644 50.9856 56.8376 50.8102L41.5891 37.919C41.4017 37.7803 41.309 37.6436 41.309 37.5498C41.309 37.4578 41.4017 37.4129 41.6346 37.4129Z" fill="url(#paint1_linear_64_1158)"/>
<path d="M43.6354 23.2234L39.8237 26.9983L43.6354 30.7732L47.4471 26.9983L43.6354 23.2234Z" fill="url(#paint2_linear_64_1158)"/>
<defs>
<linearGradient id="paint0_linear_64_1158" x1="1.5" y1="1.5" x2="57" y2="53.5" gradientUnits="userSpaceOnUse">
<stop stop-color="#E3FDF5"/>
<stop offset="0.336538" stop-color="#EFF3F7"/>
<stop offset="1" stop-color="#FFE6FA"/>
</linearGradient>
<linearGradient id="paint1_linear_64_1158" x1="1.5" y1="1.5" x2="57" y2="53.5" gradientUnits="userSpaceOnUse">
<stop stop-color="#E3FDF5"/>
<stop offset="0.336538" stop-color="#EFF3F7"/>
<stop offset="1" stop-color="#FFE6FA"/>
</linearGradient>
<linearGradient id="paint2_linear_64_1158" x1="1.5" y1="1.5" x2="57" y2="53.5" gradientUnits="userSpaceOnUse">
<stop stop-color="#E3FDF5"/>
<stop offset="0.336538" stop-color="#EFF3F7"/>
<stop offset="1" stop-color="#FFE6FA"/>
</linearGradient>
</defs>
</svg>
